<svg xmlns="http://www.w3.org/2000/svg" xmlns:xlink="http://www.w3.org/1999/xlink" version="1.1" id="Layer_1" x="0px" y="0px" width="100px" height="100px" viewBox="0 0 100 100" enable-background="new 0 0 100 100" xml:space="preserve">
<path d="M84.61,25C80.94,19,76,13.39,69,9.82V3h0.02c0-1-8.64-1.31-19.51-1.31C38.64,1.69,30,2,30,2.62v7.58  C23,13.77,18.32,19,14.78,25H8v40h6.67C18.27,71,23,76.46,30,80.06c0,0,0.54,0.41,1.73,0.65c2.02,0.39,6.25,0.81,7.83,0.96  c3.3,0.311,6.62,0.49,9.95,0.58c-3.33,0.1-6.67,0.1-10-0.02c-1.67-0.07-3.34-0.16-5.01-0.33c-0.83-0.091-1.67-0.2-2.51-0.351  c-0.42-0.08-0.84-0.17-1.27-0.31c-0.22-0.07-0.43-0.141-0.67-0.26c-0.11-0.061-0.24-0.131-0.37-0.25c-0.02-0.021-0.04,0.029-0.06,0  l-6,12.27h-0.01l-0.2,0.36c0,1.85,11.8,3.31,26.37,3.31s26.38-1.51,26.38-3.36L75.9,92.83L69.02,80.41C75.58,76.8,81.03,71,84.71,65  H91V25H84.61z M32.62,92.25c-1.52,0-2.79-1.25-3.05-2.25h6.09C35.4,91,34.14,92.25,32.62,92.25z M29.55,89  c0.19-2,1.49-2.39,3.07-2.39c1.57,0,2.87,0.39,3.06,2.39H29.55z M70.46,35.26c0.78,0,1.41,0.63,1.41,1.41  c0,0.78-0.63,1.41-1.41,1.41c-0.77,0-1.4-0.63-1.4-1.41C69.06,35.89,69.69,35.26,70.46,35.26z M67.02,36H60v-7.95  C63,29.85,65.32,32,67.02,36z M58.64,22.6c0.78,0,1.41,0.63,1.41,1.41c0,0.77-0.63,1.4-1.41,1.4c-0.77,0-1.399-0.63-1.399-1.4  C57.24,23.23,57.87,22.6,58.64,22.6z M60,55h6.64C64.95,58,63,60.39,60,62.06V55z M40.92,22.6c0.77,0,1.41,0.63,1.41,1.41  c0,0.77-0.64,1.4-1.41,1.4c-0.78,0-1.41-0.63-1.41-1.4C39.51,23.23,40.14,22.6,40.92,22.6z M28.26,35.26c0.77,0,1.4,0.63,1.4,1.41  c0,0.78-0.63,1.41-1.4,1.41c-0.78,0-1.41-0.63-1.41-1.41C26.85,35.89,27.48,35.26,28.26,35.26z M28.54,55.52  c-0.78,0-1.41-0.63-1.41-1.399c0-0.78,0.63-1.41,1.41-1.41c0.77,0,1.4,0.63,1.4,1.41C29.94,54.89,29.31,55.52,28.54,55.52z   M40,62.32C37,60.64,34.53,58,32.76,55H40V62.32z M40,52h-8.65c-0.92-2-1.42-4.73-1.42-7.33c0-2.36,0.41-4.67,1.17-6.67H40V52z   M40,36h-7.63c1.79-4,4.63-6.4,7.63-8.21V36z M41.48,67.9c-0.78,0-1.41-0.631-1.41-1.4c0-0.78,0.63-1.41,1.41-1.41  s1.41,0.63,1.41,1.41C42.89,67.27,42.26,67.9,41.48,67.9z M49.78,93.23c-1.71,0-3.09-1.23-3.09-2.75c0-0.591,0.2-1.131,0.56-1.58  l4,4C50.81,93.11,50.31,93.23,49.78,93.23z M51.97,92.42l-4.1-4.09c0.53-0.37,1.19-0.59,1.91-0.59c1.71,0,3.1,1.229,3.1,2.74  C52.88,91.24,52.53,91.93,51.97,92.42z M57,63.44c-2,0.89-4.66,1.38-7.23,1.38c-2.39,0-4.77-0.42-6.77-1.21V55h14V63.44z M57,52H43  V38h14V52z M57,36H43v-9.5c2-0.78,4.38-1.21,6.77-1.21c2.57,0,5.23,0.49,7.23,1.38V36z M58.64,67.62c-0.77,0-1.399-0.63-1.399-1.41  c0-0.77,0.63-1.4,1.399-1.4c0.78,0,1.41,0.631,1.41,1.4C60.05,66.99,59.42,67.62,58.64,67.62z M65.82,92.25  c-1.521,0-2.78-1.25-3.04-2.25h6.08C68.6,91,67.34,92.25,65.82,92.25z M62.75,89c0.19-2,1.49-2.39,3.07-2.39S68.7,87,68.89,89H62.75  z M68.03,52H60V38h8.29c0.76,2,1.17,4.31,1.17,6.67C69.46,47.27,68.95,50,68.03,52z M70.74,55.52c-0.771,0-1.4-0.63-1.4-1.399  c0-0.78,0.63-1.41,1.4-1.41c0.779,0,1.41,0.63,1.41,1.41C72.15,54.89,71.52,55.52,70.74,55.52z"/>
<path d="M30.507,80.001L30.507,80.001z"/>
</svg>