<?xml version="1.0" encoding="utf-8"?>
<!-- Generator: Adobe Illustrator 16.0.0, SVG Export Plug-In . SVG Version: 6.00 Build 0)  -->
<!DOCTYPE svg PUBLIC "-//W3C//DTD SVG 1.1//EN" "http://www.w3.org/Graphics/SVG/1.1/DTD/svg11.dtd">
<svg version="1.1" id="Layer_1" xmlns="http://www.w3.org/2000/svg" xmlns:xlink="http://www.w3.org/1999/xlink" x="0px" y="0px"
	 width="100px" height="86.502px" viewBox="1.743 6.533 100 86.502" enable-background="new 1.743 6.533 100 86.502"
	 xml:space="preserve">
<path d="M95.003,88.695l-2.859-8.578h-4.379l-0.27-8.578h-6.086l1.251-8.578h-5.73l-1.251,8.578h-4.277l1.251-8.578h-5.73
	l-1.251,8.578h-4.278l1.251-8.578h-5.729l-1.251,8.578h-4.278l1.251-8.578h-5.731l-1.248,8.578h-17.3l-2.397,8.578H1.743
	l10.53,9.056c5.1,4.589,4.094,3.812,7.897,3.812h69.758C94.291,92.985,96.433,91.556,95.003,88.695z"/>
<circle cx="61.404" cy="47.948" r="2.963"/>
<path d="M70.527,22.91c2.39,0.925,4.82,1.177,6.98,0.861c9.983,6.833,15.656,16.685,15.656,27.406c0,7.36-2.671,13.82-7.385,18.933
	h3.102l0.269,8.578h0.305c7.785-6.934,12.288-16.43,12.288-27.511c0-12.842-6.229-24.597-17.288-32.981
	c0.974-4.202-2.316-9.042-7.775-11.158c-5.845-2.265-13.658,3.838-13.658,3.838S64.686,20.649,70.527,22.91z"/>
<path d="M36.384,49.95v7.607c0,0.763,0.129,1.462,0.357,2.105c-1.134,2.289-1.788,4.859-1.788,7.588
	c0,0.778,0.058,1.762,0.157,2.859h9.31l1.248-8.579h22.599c-0.229-0.641-0.488-1.266-0.787-1.87
	c0.228-0.642,0.357-1.341,0.357-2.104V50.03c6.819-0.612,9.192-5.836,5.208-12.056L60.184,17.83
	c-4.244-6.622-11.197-6.605-15.453,0.007L31.798,37.977C27.922,44.001,30.04,49.086,36.384,49.95z M61.404,42.126
	c3.21,0,5.822,2.612,5.822,5.822s-2.612,5.822-5.822,5.822s-5.822-2.612-5.822-5.822S58.194,42.126,61.404,42.126z M42.817,42.126
	c3.21,0,5.822,2.612,5.822,5.822s-2.612,5.822-5.822,5.822s-5.822-2.612-5.822-5.822S39.607,42.126,42.817,42.126z"/>
<circle cx="42.817" cy="47.948" r="2.963"/>
<path d="M16.171,78.688h8.705l0.949-3.396c-8.191-5.104-13.869-13.044-13.869-24.114c0-10.204,5.137-19.62,14.237-26.395
	c2.339,0.529,5.078,0.349,7.767-0.693c5.787-2.242,7.434-11.918,7.434-11.918s-7.736-6.042-13.525-3.799
	c-5.092,1.972-8.277,6.341-7.825,10.319C9.383,27.037,3.378,38.58,3.378,51.178C3.378,62.159,8.116,71.701,16.171,78.688z"/>
</svg>
