<svg xmlns="http://www.w3.org/2000/svg" xmlns:xlink="http://www.w3.org/1999/xlink" version="1.1" id="Layer_2" x="0px" y="0px" width="100px" height="100px" viewBox="0 0 100 100" enable-background="new 0 0 100 100" xml:space="preserve">
<g>
	<path fill="none" d="M54.824,47.249c0.286,0,0.846-1.067,1.207-2.519h-5.153c-0.149,0.19-0.112,0.294-0.091,0.354   C51.133,46.057,53.744,47.249,54.824,47.249z"/>
	<path fill="none" d="M72.045,78.109c-0.162-0.433-0.251-0.771-0.251-0.978C71.794,77.537,71.907,77.865,72.045,78.109z"/>
	<path fill="none" d="M36.334,44.811c-0.003,0.002-0.007,0.005-0.01,0.007c1.281,0.361,3.436,0.583,4.648,0.466   C39.349,44.07,37.79,43.91,36.334,44.811z"/>
	<path fill="none" d="M65.445,43.692c-0.003,0.002-0.007,0.004-0.011,0.006c1.279,0.361,3.425,0.582,4.649,0.467   C68.461,42.951,66.9,42.792,65.445,43.692z"/>
	<path fill="none" d="M80.946,65.942c0.003-0.02,0.067-0.423,0.162-1.149c0.694-5.365,3.552-32.884-8.458-47.915   c-4.576-5.73-10.897-9.011-18.786-9.753c-8.334-0.784-15.106,1.582-20.12,7.045C20.481,28.627,23.011,59.897,23.038,60.21   l0.113,1.314l-9.729,6.557c-0.126,0.111-0.255,0.235-0.379,0.362c0.326,0.013,0.74,0.01,1.194-0.012l8.741-0.416l5.606,3.881   l-2.414,1.874c-3.533,2.74-9.093,8.444-8.971,12.083c0.021,0.633,0.212,1.586,1.627,2.539c0.703,0.474,1.33,0.714,1.862,0.714   c2.092,0,4.07-4.024,5.379-6.688c1.43-2.912,2.464-5.016,4.648-5.016c0.59,0,1.712,0.199,2.599,1.53   c2.376,3.563,2.15,5.437,1.014,7.303c-0.056,0.093-0.12,0.179-0.161,0.281c-0.581,2.033-1.029,4.943-0.95,6.448   c0.635-0.413,1.728-1.288,3.431-3.137c4.689-5.089,6.352-8.514,6.939-10.291c-0.066-0.609-0.118-1.273-0.118-2.023   c0-1.931,1.259-2.81,2.429-2.81c0.742,0,1.43,0.347,1.889,0.954c0.843,1.114,0.692,2.84,0.354,4.234   c0.129,1.032,0.237,2.014-0.083,2.982c-0.064,0.693,0.094,2.149,0.359,3.149c0.236-0.3,0.532-0.72,0.887-1.307   c2.581-4.269,3.389-7.039,3.824-8.526c0.307-1.049,0.818-2.804,2.696-2.804c1.125,0,1.809,0.739,2.115,1.112   c0.064,0.018,0.198,0.043,0.427,0.043c0.674,0,1.444-0.223,1.614-0.281l3.282-1.159l-0.307,3.468   c-0.359,4.071-0.095,8.459,0.549,9.933c0.12-0.086,0.276-0.21,0.466-0.382c3.412-3.102,2.571-6.349,2.017-8.495   c-0.306-1.177-0.593-2.287,0.109-3.342c0.39-0.585,1.019-0.979,1.725-1.079c0.19-0.027,0.416-0.044,0.668-0.044   c0.074,0,7.077,0.326,7.731,3.485c0.687,1.693,3.955,6.707,5.714,7.865c0.021-0.058,0.041-0.124,0.062-0.197   c0.856-3.024,1.264-5.775,1.142-7.614c-1.69-1.157-2.962-2.272-2.53-3.945c0.214-0.822,0.95-1.737,2.377-1.848   c0.106-0.007,0.21-0.013,0.312-0.013c0.703,0,2.896,0.242,3.866,3.098l0.208,0.137c2.253,1.469,4.038,2.633,4.84,3.865   c0.577-0.035,1.087-0.167,1.424-0.299L80.742,67.22L80.946,65.942z M43.628,46.206c-0.442,1.037-1.907,1.348-3.501,1.348   c-0.708,0-1.44-0.061-2.121-0.146c-4.393-0.555-4.594-1.87-4.66-2.303c-0.068-0.449,0.015-1.293,1.337-1.896l0.006,0.015   c0.137-0.103,0.293-0.21,0.467-0.316c1.096-0.678,4.019-1.958,7.457,0.818C43.887,44.753,43.868,45.642,43.628,46.206z    M45.238,42.423c-1.63,0-2.604-1.727-2.605-3.396c-0.001-0.752,0.188-1.429,0.545-1.955c0.472-0.698,1.203-1.08,2.056-1.08v2.239   c-0.124,0-0.157,0.028-0.202,0.096c-0.1,0.149-0.16,0.409-0.16,0.699c0,0.632,0.246,0.818,0.366,0.911   c0.12-0.092,0.367-0.279,0.367-0.911c0-0.29-0.059-0.55-0.16-0.699c-0.045-0.068-0.079-0.096-0.203-0.096v-2.239   c0.855,0,1.585,0.382,2.057,1.08c0.357,0.526,0.545,1.203,0.545,1.955C47.845,40.696,46.87,42.423,45.238,42.423z M58.492,43.759   c-0.179,1.344-0.975,5.729-3.668,5.729c-1.703,0-5.385-1.507-6.147-3.656c-0.393-1.104-0.011-2.231,1.046-3.091l0.309-0.25h8.629   L58.492,43.759z M58.401,38.608c-0.003-0.752,0.187-1.429,0.544-1.955c0.473-0.698,1.203-1.081,2.057-1.081v2.239   c-0.123,0-0.156,0.029-0.203,0.097c-0.099,0.148-0.159,0.409-0.159,0.699c0,0.631,0.246,0.817,0.366,0.911   c0.121-0.093,0.368-0.279,0.368-0.911c0-0.29-0.06-0.551-0.16-0.699c-0.046-0.068-0.079-0.097-0.203-0.097v-2.239   c0.855,0,1.585,0.383,2.056,1.081c0.358,0.526,0.546,1.203,0.546,1.955c0,1.668-0.975,3.396-2.606,3.396   C59.376,42.004,58.402,40.276,58.401,38.608z M72.739,45.086c-0.441,1.039-1.906,1.349-3.501,1.349   c-0.708,0-1.439-0.062-2.119-0.147c-4.395-0.554-4.594-1.87-4.66-2.302c-0.068-0.449,0.014-1.293,1.337-1.897l0.006,0.016   c0.138-0.103,0.294-0.211,0.467-0.317c1.097-0.679,4.021-1.957,7.457,0.819C72.999,43.633,72.98,44.521,72.739,45.086z"/>
	<path d="M97.058,74.764l-11.507-9.409c4.084-31.546-6.162-47.22-9.399-51.272C70.786,7.367,63.428,3.526,54.284,2.666   c-9.8-0.924-17.853,1.947-23.846,8.484C17.334,25.443,18.104,52.843,18.482,59.27l-7.672,5.17l-0.183,0.137   c-1.079,0.9-3.491,3.264-2.582,5.77c0.935,2.585,4.323,2.585,5.435,2.585c0.301,0,0.624-0.008,0.969-0.024l6.199-0.297   c-3.257,3.029-8.09,8.387-7.926,13.388c0.056,1.719,0.727,4.172,3.601,6.109c1.456,0.981,2.925,1.479,4.365,1.479   c4.882,0,7.493-5.312,9.398-9.191c0.164-0.332,0.345-0.703,0.528-1.064c0.061,0.184,0.063,0.263,0.066,0.263   c-0.02,0.054-0.111,0.204-0.178,0.314c-0.196,0.322-0.465,0.764-0.634,1.354c-0.549,1.921-2.182,8.403-0.115,11.145   c0.68,0.902,1.678,1.398,2.808,1.398c1.981,0,4.188-1.478,7.379-4.939c1.777-1.928,3.182-3.673,4.293-5.233   c0.219,0.677,0.497,1.3,0.838,1.804c1.009,1.491,2.309,1.714,2.994,1.714c2.29,0,3.913-2.198,5.071-4.113   c2.186-3.614,3.261-6.358,3.852-8.157c0.396,0.089,0.84,0.142,1.339,0.144c-0.108,3.527,0.114,8.712,2.103,10.885   c0.764,0.835,1.735,1.276,2.81,1.276c1.228,0,2.452-0.573,3.745-1.748c4.485-4.077,4.255-8.632,3.691-11.438   c0.592,0.148,1.152,0.32,1.511,0.472c1.392,3.313,6.186,10.734,10.112,10.734c0.892,0,3.067-0.358,4.005-3.666   c0.613-2.16,1.018-4.146,1.209-5.907c0.25,0.184,0.469,0.353,0.637,0.499c0.056,0.34,0.183,0.668,0.378,0.965   c0.615,0.934,1.725,1.388,3.388,1.388c2.156,0,5.039-0.771,6.071-2.949C98.395,78.674,98.815,76.913,97.058,74.764z M71.794,77.132   c0,0.207,0.089,0.545,0.251,0.978C71.907,77.865,71.794,77.537,71.794,77.132z M92.213,77.994c-0.802-1.232-2.587-2.396-4.84-3.865   l-0.208-0.137c-0.97-2.855-3.163-3.098-3.866-3.098c-0.103,0-0.206,0.006-0.312,0.013c-1.427,0.11-2.163,1.025-2.377,1.848   c-0.432,1.673,0.84,2.788,2.53,3.945c0.122,1.839-0.285,4.59-1.142,7.614c-0.021,0.073-0.041,0.14-0.062,0.197   c-1.759-1.158-5.027-6.172-5.714-7.865c-0.654-3.159-7.657-3.485-7.731-3.485c-0.252,0-0.478,0.017-0.668,0.044   c-0.706,0.101-1.335,0.494-1.725,1.079c-0.702,1.055-0.415,2.165-0.109,3.342c0.555,2.146,1.396,5.394-2.017,8.495   c-0.189,0.172-0.346,0.296-0.466,0.382c-0.644-1.474-0.908-5.861-0.549-9.933l0.307-3.468l-3.282,1.159   c-0.17,0.059-0.94,0.281-1.614,0.281c-0.229,0-0.362-0.025-0.427-0.043c-0.307-0.373-0.99-1.112-2.115-1.112   c-1.878,0-2.39,1.755-2.696,2.804c-0.435,1.487-1.243,4.258-3.824,8.526c-0.355,0.587-0.651,1.007-0.887,1.307   c-0.265-1-0.424-2.456-0.359-3.149c0.319-0.969,0.211-1.95,0.083-2.982c0.337-1.395,0.488-3.12-0.354-4.234   c-0.459-0.607-1.147-0.954-1.889-0.954c-1.17,0-2.429,0.879-2.429,2.81c0,0.75,0.052,1.414,0.118,2.023   c-0.587,1.777-2.25,5.202-6.939,10.291c-1.703,1.849-2.795,2.724-3.431,3.137c-0.08-1.505,0.369-4.415,0.95-6.448   c0.041-0.103,0.105-0.188,0.161-0.281c1.136-1.866,1.362-3.739-1.014-7.303c-0.887-1.331-2.009-1.53-2.599-1.53   c-2.184,0-3.218,2.104-4.648,5.016c-1.309,2.664-3.287,6.688-5.379,6.688c-0.532,0-1.159-0.24-1.862-0.714   c-1.415-0.953-1.606-1.906-1.627-2.539c-0.122-3.639,5.438-9.343,8.971-12.083l2.414-1.874l-5.606-3.881l-8.741,0.416   c-0.455,0.021-0.868,0.024-1.194,0.012c0.124-0.127,0.252-0.251,0.379-0.362l9.729-6.557l-0.113-1.314   c-0.027-0.312-2.556-31.583,10.707-46.04c5.013-5.464,11.786-7.83,20.12-7.045c7.889,0.742,14.21,4.023,18.786,9.753   c12.01,15.031,9.152,42.55,8.458,47.915c-0.095,0.727-0.159,1.13-0.162,1.149l-0.204,1.277l12.895,10.476   C93.3,77.827,92.79,77.959,92.213,77.994z"/>
	<path d="M71.726,42.606c-3.437-2.776-6.36-1.499-7.457-0.819c-0.173,0.106-0.329,0.214-0.467,0.317l-0.006-0.016   c-1.323,0.604-1.405,1.448-1.337,1.897c0.066,0.432,0.266,1.749,4.66,2.302c0.68,0.086,1.411,0.147,2.119,0.147   c1.595,0,3.06-0.311,3.501-1.349C72.98,44.521,72.999,43.633,71.726,42.606z M65.435,43.698c0.004-0.002,0.008-0.004,0.011-0.006   c1.455-0.9,3.016-0.741,4.639,0.473C68.859,44.279,66.714,44.059,65.435,43.698z"/>
	<path d="M42.614,43.725c-3.438-2.777-6.361-1.497-7.457-0.818c-0.174,0.106-0.33,0.214-0.467,0.316l-0.006-0.015   c-1.322,0.604-1.405,1.448-1.337,1.896c0.066,0.433,0.267,1.748,4.66,2.303c0.68,0.085,1.413,0.146,2.121,0.146   c1.594,0,3.059-0.311,3.501-1.348C43.868,45.642,43.887,44.753,42.614,43.725z M36.324,44.818c0.003-0.002,0.007-0.005,0.01-0.007   c1.456-0.901,3.015-0.741,4.638,0.473C39.76,45.401,37.604,45.179,36.324,44.818z"/>
	<path d="M49.723,42.741c-1.058,0.859-1.439,1.986-1.046,3.091c0.763,2.148,4.444,3.656,6.147,3.656   c2.693,0,3.489-4.385,3.668-5.729l0.169-1.268h-8.629L49.723,42.741z M50.878,44.729h5.153c-0.361,1.452-0.921,2.519-1.207,2.519   c-1.08,0-3.691-1.191-4.038-2.166C50.766,45.024,50.729,44.919,50.878,44.729z"/>
	<path d="M45.243,35.992v2.239c0.125,0,0.158,0.028,0.203,0.096c0.101,0.149,0.16,0.409,0.16,0.699c0,0.632-0.247,0.818-0.367,0.911   c-0.12-0.092-0.366-0.279-0.366-0.911c0-0.29,0.06-0.55,0.16-0.699c0.045-0.068,0.079-0.096,0.202-0.096v-2.239   c-0.853,0-1.583,0.382-2.056,1.08c-0.357,0.526-0.546,1.203-0.545,1.955c0.001,1.669,0.975,3.396,2.605,3.396   c1.631,0,2.606-1.727,2.606-3.396c0-0.752-0.188-1.429-0.545-1.955C46.828,36.375,46.098,35.992,45.243,35.992z"/>
	<path d="M63.612,38.608c0-0.752-0.188-1.429-0.546-1.955c-0.471-0.698-1.2-1.081-2.056-1.081v2.239   c0.124,0,0.157,0.029,0.203,0.097c0.101,0.148,0.16,0.409,0.16,0.699c0,0.631-0.247,0.817-0.368,0.911   c-0.12-0.093-0.366-0.279-0.366-0.911c0-0.29,0.061-0.551,0.159-0.699c0.047-0.068,0.08-0.097,0.203-0.097v-2.239   c-0.854,0-1.584,0.383-2.057,1.081c-0.357,0.526-0.547,1.203-0.544,1.955c0.001,1.668,0.975,3.396,2.604,3.396   C62.638,42.004,63.612,40.276,63.612,38.608z"/>
</g>
</svg>